<?xml version="1.0" encoding="UTF-8"?>
<svg xmlns="http://www.w3.org/2000/svg" xmlns:xlink="http://www.w3.org/1999/xlink" viewBox="0 0 48 48" width="48px" height="48px">
<g id="surface105835390">
<rect x="0" y="0" width="48" height="48" style="fill:rgb(100%,100%,100%);fill-opacity:1;stroke:none;"/>
<path style=" stroke:none;fill-rule:nonzero;fill:rgb(98.431373%,75.294119%,17.647059%);fill-opacity:1;" d="M 43.609375 20.082031 L 42 20.082031 L 42 20 L 24 20 L 24 28 L 35.304688 28 C 33.652344 32.65625 29.222656 36 24 36 C 17.371094 36 12 30.628906 12 24 C 12 17.371094 17.371094 12 24 12 C 27.058594 12 29.84375 13.152344 31.960938 15.039062 L 37.617188 9.382812 C 34.046875 6.054688 29.269531 4 24 4 C 12.953125 4 4 12.953125 4 24 C 4 35.046875 12.953125 44 24 44 C 35.046875 44 44 35.046875 44 24 C 44 22.660156 43.863281 21.351562 43.609375 20.082031 Z M 43.609375 20.082031 "/>
<path style=" stroke:none;fill-rule:nonzero;fill:rgb(89.803922%,22.352941%,20.784314%);fill-opacity:1;" d="M 6.304688 14.691406 L 12.878906 19.511719 C 14.65625 15.109375 18.960938 12 24 12 C 27.058594 12 29.84375 13.152344 31.960938 15.039062 L 37.617188 9.382812 C 34.046875 6.054688 29.269531 4 24 4 C 16.316406 4 9.65625 8.335938 6.304688 14.691406 Z M 6.304688 14.691406 "/>
<path style=" stroke:none;fill-rule:nonzero;fill:rgb(29.803923%,68.627453%,31.37255%);fill-opacity:1;" d="M 24 44 C 29.164062 44 33.859375 42.023438 37.410156 38.808594 L 31.21875 33.570312 C 29.210938 35.089844 26.714844 36 24 36 C 18.796875 36 14.382812 32.683594 12.71875 28.054688 L 6.195312 33.078125 C 9.503906 39.554688 16.226562 44 24 44 Z M 24 44 "/>
<path style=" stroke:none;fill-rule:nonzero;fill:rgb(8.235294%,39.607844%,75.294119%);fill-opacity:1;" d="M 43.609375 20.082031 L 43.59375 20 L 24 20 L 24 28 L 35.304688 28 C 34.511719 30.238281 33.070312 32.164062 31.214844 33.570312 C 31.21875 33.570312 31.21875 33.570312 31.21875 33.570312 L 37.410156 38.808594 C 36.972656 39.203125 44 34 44 24 C 44 22.660156 43.863281 21.351562 43.609375 20.082031 Z M 43.609375 20.082031 "/>
</g>
</svg>
